<svg width="7" height="9" viewBox="0 0 7 9" fill="none" xmlns="http://www.w3.org/2000/svg">
<path d="M2.91667 3V7.5H2.33333V3H2.91667Z" fill="#4C505B"/>
<path d="M4.08333 3V7.5H3.5V3H4.08333Z" fill="#4C505B"/>
<path fill-rule="evenodd" clip-rule="evenodd" d="M2.33333 0C2.01117 0 1.75 0.335786 1.75 0.75V1.5H0V2.25H0.583333V7.5C0.583333 8.32843 1.10567 9 1.75 9H4.8125C5.37629 9 5.83333 8.41237 5.83333 7.6875V2.25H6.41667V1.5H4.66667V0.75C4.66667 0.335786 4.4055 0 4.08333 0H2.33333ZM5.25 2.25H1.16667V7.5C1.16667 7.91421 1.42783 8.25 1.75 8.25H4.8125C5.05412 8.25 5.25 7.99816 5.25 7.6875V2.25ZM4.08333 1.5H2.33333V1.125C2.33333 0.917893 2.46392 0.75 2.625 0.75H3.79167C3.95275 0.75 4.08333 0.917893 4.08333 1.125V1.5Z" fill="#4C505B"/>
</svg>
