<svg width="7" height="8" viewBox="0 0 7 8" fill="none" xmlns="http://www.w3.org/2000/svg">
<path fill-rule="evenodd" clip-rule="evenodd" d="M5.57883 0.195262C5.35103 -0.0650874 4.98168 -0.0650874 4.75388 0.195262L3.92892 1.13807L5.99131 3.49509L6.81627 2.55228C7.04408 2.29194 7.04408 1.86983 6.81627 1.60948L5.57883 0.195262ZM5.37259 0.902369C5.25869 0.772194 5.07402 0.772194 4.96012 0.902369L4.75388 1.13807L5.99131 2.55228L6.19755 2.31658C6.31146 2.18641 6.31146 1.97535 6.19755 1.84518L5.37259 0.902369Z" fill="#4C505B"/>
<path d="M4.3414 2.55228L4.75388 3.02369L2.48524 5.61641C2.37134 5.74659 2.18667 5.74659 2.07276 5.61641C1.95886 5.48624 1.95886 5.27518 2.07276 5.14501L4.3414 2.55228Z" fill="#4C505B"/>
<path d="M5.16636 3.49509L5.57884 3.9665L3.10396 6.79493L7.62939e-06 8L1.04157 4.43791L3.49605 1.63278L3.90853 2.10418L1.55716 4.79147L1.09313 6.38245L1.40248 6.736L2.7946 6.20567L5.16636 3.49509Z" fill="#4C505B"/>
</svg>
