<svg width="25" height="27" viewBox="0 0 25 27" fill="none" xmlns="http://www.w3.org/2000/svg">
<g clip-path="url(#clip0_31_477)">
<rect width="25" height="27" fill="url(#paint0_linear_31_477)"/>
<path d="M18.5417 14.355C19.2177 11.9303 19.6343 7.78501 16.7917 4.95001C14.6192 2.78335 8.74999 2.56501 6.70832 7.29001C6.36749 8.07877 6.83332 9.31501 7.74999 9.27001C8.11024 9.25201 8.33332 10.485 8.54166 11.25C8.24999 14.355 5.65149 14.4123 4.33332 16.785C2.70832 19.71 4.70832 24.03 9.49999 24.03C14.2917 24.03 17.0385 19.7465 18.5417 14.355Z" fill="url(#paint1_linear_31_477)"/>
<path d="M20.1667 21.4583C20.7777 22.7294 21.0833 27.36 21.0833 27.36H3.91666C3.91666 27.36 4.22224 22.7294 4.83332 21.4583C5.74999 19.5515 12.5 17.1 12.5 17.1C12.5 17.1 19.25 19.5515 20.1667 21.4583Z" fill="url(#paint2_linear_31_477)"/>
<path d="M14.5 18.18C14.5 18.18 13.4362 18.81 12.4575 18.81C11.4788 18.81 10.5 18.18 10.5 18.18V16.2C10.2895 16.2359 10.0762 16.2496 9.86317 16.2409C7.86417 16.2407 7.11042 13.096 7.5 9.27001C7.75 9.27001 8.33334 9.27001 9.16667 8.01001C8.95834 9.76501 11.375 9.49501 12.2917 8.10001C11.8333 9.76501 13.0417 10.89 14.0833 10.215C16.1259 8.89138 16.5851 12.9263 14.5 12.96V18.18Z" fill="url(#paint3_linear_31_477)"/>
<g style="mix-blend-mode:multiply" opacity="0.782">
<path d="M10.5 16.2C11.5337 15.9945 12.5229 15.5824 13.4167 14.985C13.4167 14.985 12.375 16.92 10.5 16.92V16.2Z" fill="#FFD7B8"/>
</g>
<path d="M12.5027 18.7178C13.105 18.6883 14.5 18.3697 14.5 17.6814V17.1C14.6528 17.1 15.0904 17.4899 15.3155 17.82C16.2052 19.125 15.2183 20.295 14.4135 20.295C13.398 20.295 12.725 19.3786 12.5 18.9378C12.275 19.3788 11.602 20.295 10.5865 20.295C9.78167 20.295 8.79483 19.125 9.6845 17.82C9.90958 17.4899 10.3472 17.1 10.5 17.1V17.6814C10.5 18.3697 11.9327 18.6883 12.5027 18.7178Z" fill="white"/>
<path d="M12.1667 24.84C12.1667 24.7688 12.1862 24.6992 12.2228 24.64C12.2595 24.5808 12.3115 24.5347 12.3724 24.5074C12.4333 24.4802 12.5004 24.473 12.565 24.4869C12.6297 24.5008 12.6891 24.5351 12.7357 24.5854C12.7823 24.6358 12.8141 24.6999 12.8269 24.7698C12.8398 24.8396 12.8332 24.912 12.8079 24.9778C12.7827 25.0436 12.74 25.0998 12.6852 25.1393C12.6304 25.1789 12.5659 25.2 12.5 25.2C12.4116 25.2 12.3268 25.1621 12.2643 25.0946C12.2018 25.027 12.1667 24.9355 12.1667 24.84ZM12.1667 23.04C12.1667 22.9688 12.1862 22.8992 12.2228 22.84C12.2595 22.7808 12.3115 22.7347 12.3724 22.7074C12.4333 22.6802 12.5004 22.673 12.565 22.6869C12.6297 22.7008 12.6891 22.7351 12.7357 22.7854C12.7823 22.8358 12.8141 22.8999 12.8269 22.9698C12.8398 23.0396 12.8332 23.112 12.8079 23.1778C12.7827 23.2436 12.74 23.2998 12.6852 23.3393C12.6304 23.3789 12.5659 23.4 12.5 23.4C12.4116 23.4 12.3268 23.3621 12.2643 23.2946C12.2018 23.2271 12.1667 23.1355 12.1667 23.04ZM12.1667 21.24C12.1667 21.1688 12.1862 21.0992 12.2228 21.04C12.2595 20.9808 12.3115 20.9347 12.3724 20.9074C12.4333 20.8802 12.5004 20.873 12.565 20.8869C12.6297 20.9008 12.6891 20.9351 12.7357 20.9854C12.7823 21.0358 12.8141 21.0999 12.8269 21.1698C12.8398 21.2396 12.8332 21.312 12.8079 21.3778C12.7827 21.4436 12.74 21.4998 12.6852 21.5393C12.6304 21.5789 12.5659 21.6 12.5 21.6C12.4116 21.6 12.3268 21.5621 12.2643 21.4946C12.2018 21.4271 12.1667 21.3355 12.1667 21.24V21.24Z" fill="url(#paint4_linear_31_477)"/>
</g>
<defs>
<linearGradient id="paint0_linear_31_477" x1="12.5" y1="27" x2="12.5" y2="0" gradientUnits="userSpaceOnUse">
<stop stop-color="#FFC9B3"/>
<stop offset="1" stop-color="#FFD2C2"/>
</linearGradient>
<linearGradient id="paint1_linear_31_477" x1="11.4068" y1="3.47296" x2="11.4068" y2="24.03" gradientUnits="userSpaceOnUse">
<stop stop-color="#130027"/>
<stop offset="1" stop-color="#130017"/>
</linearGradient>
<linearGradient id="paint2_linear_31_477" x1="12.5" y1="27.36" x2="12.5" y2="17.1" gradientUnits="userSpaceOnUse">
<stop stop-color="#E6864E"/>
<stop offset="1" stop-color="#E67240"/>
</linearGradient>
<linearGradient id="paint3_linear_31_477" x1="11.6289" y1="8.01001" x2="11.6289" y2="18.81" gradientUnits="userSpaceOnUse">
<stop stop-color="#FFE0CC"/>
<stop offset="1" stop-color="#FFEADB"/>
</linearGradient>
<linearGradient id="paint4_linear_31_477" x1="12.5" y1="20.88" x2="12.5" y2="25.2" gradientUnits="userSpaceOnUse">
<stop stop-color="#130027"/>
<stop offset="1" stop-color="#130017"/>
</linearGradient>
<clipPath id="clip0_31_477">
<rect width="25" height="27" fill="white"/>
</clipPath>
</defs>
</svg>
