<svg width="100" height="90" viewBox="0 0 37 48" fill="fit" xmlns="http://www.w3.org/2000/svg">
<g id="User 01c">
<path id="Combined Shape" d="M31.1123 22.1914C32.5018 17.4296 33.3583 9.28875 27.5152 3.72117C23.0496 -0.533879 10.9856 -0.962671 6.78896 8.31663C6.08838 9.86565 7.04589 12.2935 8.9301 12.2051C9.67059 12.1697 10.1291 14.5912 10.5574 16.0936C9.95785 22.1914 4.61664 22.304 1.90716 26.9636C-1.43302 32.7079 2.67797 41.1919 12.5272 41.1919C22.3765 41.1919 28.0226 32.7795 31.1123 22.1914Z" fill="url(#paint0_linear_401_345)"/>
<g id="Group 16">
<path id="Rectangle" d="M34.4525 36.1412C35.7086 38.6376 36.3367 47.7315 36.3367 47.7315H1.0507C1.0507 47.7315 1.67883 38.6376 2.93491 36.1412C4.81911 32.3966 18.6937 27.5822 18.6937 27.5822C18.6937 27.5822 32.5683 32.3966 34.4525 36.1412Z" fill="url(#paint1_linear_401_345)"/>
<path id="Mask" d="M22.8047 29.7032C22.8047 29.7032 20.618 30.9404 18.6064 30.9404C16.5947 30.9404 14.5827 29.7032 14.5827 29.7032V25.8147C14.1499 25.8853 13.7115 25.9122 13.2737 25.895C9.16477 25.8946 7.61544 19.7188 8.41623 12.2051C8.9301 12.2051 10.1291 12.2051 11.8421 9.73059C11.4138 13.1772 16.3813 12.6469 18.2655 9.90734C17.3234 13.1772 19.8071 15.3865 21.9482 14.0609C26.1468 11.4615 27.0906 19.3857 22.8047 19.4518V29.7032Z" fill="url(#paint2_linear_401_345)"/>
<g id="Group 16_2">
<g id="Path 2" style="mix-blend-mode:multiply" opacity="0.782">
<path d="M14.5827 25.8147C16.7075 25.411 18.7407 24.6018 20.5779 23.4286C20.5779 23.4286 18.4368 27.2287 14.5827 27.2287V25.8147Z" fill="#FFD7B8"/>
</g>
</g>
</g>
<g id="Group 9">
<path id="Combined Shape_2" d="M18.6994 30.7593C19.9373 30.7015 22.8047 30.0758 22.8047 28.724V27.5822C23.1188 27.5822 24.0183 28.3479 24.4809 28.9962C26.3096 31.5591 24.2812 33.8568 22.6269 33.8568C20.5395 33.8568 19.1562 32.0572 18.6937 31.1914C18.2312 32.0575 16.8479 33.8568 14.7605 33.8568C13.1062 33.8568 11.0777 31.5591 12.9065 28.9962C13.3691 28.3479 14.2686 27.5822 14.5827 27.5822V28.724C14.5827 30.0758 17.5275 30.7015 18.6994 30.7593Z" fill="white"/>
</g>
<path id="Combined Shape_3" d="M18.0085 42.7826C18.0085 42.6428 18.0487 42.5061 18.124 42.3898C18.1993 42.2736 18.3063 42.1829 18.4315 42.1294C18.5567 42.0759 18.6945 42.0619 18.8274 42.0892C18.9603 42.1165 19.0824 42.1838 19.1782 42.2827C19.274 42.3816 19.3393 42.5075 19.3657 42.6447C19.3921 42.7818 19.3786 42.924 19.3267 43.0532C19.2749 43.1824 19.187 43.2928 19.0744 43.3705C18.9617 43.4481 18.8292 43.4896 18.6937 43.4896C18.512 43.4896 18.3377 43.4151 18.2092 43.2825C18.0807 43.1499 18.0085 42.9701 18.0085 42.7826ZM18.0085 39.2476C18.0085 39.1078 18.0487 38.9711 18.124 38.8549C18.1993 38.7386 18.3063 38.648 18.4315 38.5945C18.5567 38.541 18.6945 38.527 18.8274 38.5542C18.9603 38.5815 19.0824 38.6488 19.1782 38.7477C19.274 38.8466 19.3393 38.9726 19.3657 39.1097C19.3921 39.2469 19.3786 39.389 19.3267 39.5182C19.2749 39.6474 19.187 39.7578 19.0744 39.8355C18.9617 39.9132 18.8292 39.9546 18.6937 39.9546C18.512 39.9546 18.3377 39.8802 18.2092 39.7476C18.0807 39.615 18.0085 39.4352 18.0085 39.2476ZM18.0085 35.7127C18.0085 35.5728 18.0487 35.4362 18.124 35.3199C18.1993 35.2036 18.3063 35.113 18.4315 35.0595C18.5567 35.006 18.6945 34.992 18.8274 35.0193C18.9603 35.0465 19.0824 35.1139 19.1782 35.2128C19.274 35.3116 19.3393 35.4376 19.3657 35.5747C19.3921 35.7119 19.3786 35.854 19.3267 35.9832C19.2749 36.1124 19.187 36.2228 19.0744 36.3005C18.9617 36.3782 18.8292 36.4197 18.6937 36.4197C18.512 36.4197 18.3377 36.3452 18.2092 36.2126C18.0807 36.08 18.0085 35.9002 18.0085 35.7127V35.7127Z" fill="url(#paint3_linear_401_345)"/>
</g>
<defs>
<linearGradient id="paint0_linear_401_345" x1="16.4467" y1="0.820435" x2="16.4467" y2="41.1919" gradientUnits="userSpaceOnUse">
<stop stop-color="#130027"/>
<stop offset="1" stop-color="#130017"/>
</linearGradient>
<linearGradient id="paint1_linear_401_345" x1="18.6937" y1="47.7315" x2="18.6937" y2="27.5822" gradientUnits="userSpaceOnUse">
<stop stop-color="#E6864E"/>
<stop offset="1" stop-color="#E67240"/>
</linearGradient>
<linearGradient id="paint2_linear_401_345" x1="16.9031" y1="9.73059" x2="16.9031" y2="30.9404" gradientUnits="userSpaceOnUse">
<stop stop-color="#FFE0CC"/>
<stop offset="1" stop-color="#FFEADB"/>
</linearGradient>
<linearGradient id="paint3_linear_401_345" x1="18.6937" y1="35.0057" x2="18.6937" y2="43.4896" gradientUnits="userSpaceOnUse">
<stop stop-color="#130027"/>
<stop offset="1" stop-color="#130017"/>
</linearGradient>
</defs>
</svg>
